# xmcd CD database file
#
# Track frame offsets:
#	150
#	13090
#	24289
#	37847
#	52863
#	64901
#	76638
#	93188
#
# Disc length: 1442 seconds
#
# Revision: 0
# Processed by: cddbd v1.5.2PL0 Copyright (c) Steve Scherf et al.
# Submitted via: CDex 1.60beta1-cs1
#
DISCID=4a05a008
DTITLE=Teddi King - Miss Teddi King
DYEAR=1900
DGENRE=Jazz
TTITLE0=I Saw Stars
TTITLE1=Love is a now and then thing
TTITLE2=New Orleans
TTITLE3=It´s the talk of the town
TTITLE4=I guess i´ll have to change my plan
TTITLE5=It´s all in the mind
TTITLE6=Love is here to stay
TTITLE7=Spring won´t be arround this season
EXTD=
EXTT0=
EXTT1=
EXTT2=
EXTT3=
EXTT4=
EXTT5=
EXTT6=
EXTT7=
PLAYORDER=
